PathFileType	4	(X/Y/Z)	C:/Users/empri/Downloads/Take 2024-05-09 02.19.42 PM.trc
DataRate	CameraRate	NumFrames	NumMarkers	Units	OrigDataRate	OrigDataStartFrame	OrigNumFrames
240	240	17	9	mm	240	959	1279
Frame#	Time	C7	CLAV	RELB	RFIN	RFRM	RSHO	RUPA	RWRA	RWRB
X1	Y1	Z1	X2	Y2	Z2	X3	Y3	Z3	X4	Y4	Z4	X5	Y5	Z5	X6	Y6	Z6	X7	Y7	Z7	X8	Y8	Z8	X9	Y9	Z9
959	3.996	-153.996	1555.97	-80.6619	22.0265	1398.48	-142.275	45.5255	1428.23	286.337	184.861	1634.87	204.662	99.7694	1476.7	329.317	-25.0598	1547.81	37.6736	19.32	1486.03	180.704	195.74	1553.54	231.06	201.301	1568.78	323.266
960	4	-153.925	1555.96	-80.5862	22.0712	1398.41	-142.205	45.5641	1427.4	286.322	185.803	1633.73	205.315	99.9626	1475.52	329.507	-24.9699	1547.67	37.8647	19.3291	1485.48	180.837	196.309	1552.35	231.559	201.807	1567.36	323.757
961	4.004	-153.849	1555.96	-80.5185	22.1133	1398.35	-142.125	45.59	1426.67	286.344	186.782	1632.64	205.997	100.199	1474.54	329.646	-24.8688	1547.53	38.0313	19.37	1485.03	180.937	196.943	1551.21	232.062	202.281	1565.98	324.327
962	4.008	-153.777	1555.94	-80.4305	22.1505	1398.29	-142.043	45.6371	1426.03	286.345	187.807	1631.62	206.706	100.46	1473.53	329.849	-24.7817	1547.4	38.2296	19.3972	1484.6	181.056	197.558	1550.13	232.646	202.879	1564.75	324.926
963	4.013	-153.689	1555.94	-80.3236	22.204	1398.23	-141.939	45.7585	1425.23	286.369	189.01	1630.42	207.574	100.761	1472.41	330.115	-24.6694	1547.25	38.448	19.4391	1484.13	181.187	198.395	1548.87	233.298	203.58	1563.16	325.607
964	4.017	-153.626	1555.94	-80.2377	22.2388	1398.17	-141.857	45.8562	1424.7	286.432	190.029	1629.55	208.255	101.106	1471.5	330.335	-24.6091	1547.13	38.6203	19.5065	1483.78	181.285	199.04	1547.91	233.806	204.196	1562	326.152
965	4.021	-153.564	1555.95	-80.123	22.2943	1398.1	-141.745	45.9324	1424.24	286.471	191.006	1628.7	208.965	101.404	1470.71	330.543	-24.5202	1547.01	38.779	19.5831	1483.44	181.382	199.697	1547.08	234.289	204.817	1560.89	326.749
966	4.025	-153.479	1555.93	-80.0444	22.3728	1398.02	-141.637	46.0732	1423.75	286.549	191.97	1627.9	209.687	101.683	1469.96	330.723	-24.3938	1546.88	38.9287	19.662	1483.13	181.482	200.39	1546.19	234.807	205.428	1559.74	327.306
967	4.029	-153.415	1555.93	-79.9407	22.4179	1397.97	-141.569	46.256	1423.29	286.633	192.946	1627.18	210.364	102.061	1469.2	330.994	-24.3201	1546.77	39.0977	19.7341	1482.88	181.566	200.992	1545.4	235.37	206.056	1558.69	327.832
968	4.033	-153.349	1555.92	-79.849	22.434	1397.89	-141.452	46.4391	1422.86	286.713	193.899	1626.54	211.048	102.415	1468.51	331.204	-24.2391	1546.67	39.2224	19.8093	1482.65	181.655	201.644	1544.6	235.905	206.718	1557.67	328.404
969	4.037	-153.296	1555.94	-79.7337	22.5121	1397.8	-141.409	46.6227	1422.51	286.798	194.832	1625.85	211.797	102.781	1467.88	331.522	-24.1615	1546.57	39.3402	19.9279	1482.46	181.763	202.316	1543.9	236.418	207.39	1556.62	328.904
970	4.042	-153.195	1555.94	-79.6148	22.6681	1397.75	-141.378	46.8725	1422.1	286.901	195.974	1625.11	212.714	103.289	1467.13	331.853	-24.045	1546.46	39.4739	20.0714	1482.25	181.861	203.052	1543.04	236.925	208.235	1555.46	329.498
971	4.046	-153.124	1555.95	-79.5286	22.8075	1397.75	-141.368	47.0676	1421.8	286.984	196.842	1624.59	213.4	103.638	1466.54	332.094	-23.9416	1546.38	39.5742	20.2057	1482.1	181.939	203.756	1542.48	237.399	208.925	1554.5	330.049
972	4.05	-153.049	1555.96	-79.4174	22.8895	1397.75	-141.328	47.2961	1421.47	287.06	197.695	1624.07	214.136	104.02	1465.99	332.305	-23.7988	1546.29	39.6711	20.3307	1481.95	182.013	204.358	1541.88	237.915	209.647	1553.68	330.468
973	4.054	-152.979	1555.98	-79.3376	22.9621	1397.74	-141.289	47.5361	1421.18	287.144	198.589	1623.62	214.871	104.385	1465.46	332.498	-23.681	1546.22	39.7667	20.4561	1481.81	182.078	204.91	1541.3	238.337	210.281	1552.8	330.956
974	4.058	-152.896	1556	-79.2537	23.0357	1397.75	-141.259	47.7569	1420.93	287.228	199.385	1623.21	215.525	104.818	1465.01	332.726	-23.5649	1546.17	39.8741	20.5743	1481.68	182.137	205.518	1540.85	238.755	210.981	1552.07	331.471
975	4.063	-152.801	1556.03	-79.1616	23.1069	1397.74	-141.198	48.043	1420.64	287.313	200.358	1622.72	216.358	105.283	1464.47	332.993	-23.4261	1546.1	39.9883	20.7172	1481.51	182.21	206.235	1540.22	239.276	211.787	1551.05	332.008
